<?xml version="1.0" standalone="no"?>
<svg xmlns:xlink="http://www.w3.org/1999/xlink" id="wave" style="transform:rotate(0deg); transition: 0.3s" viewBox="0 0 1440 490" version="1.1" xmlns="http://www.w3.org/2000/svg"><defs><linearGradient id="sw-gradient-0" x1="0" x2="0" y1="1" y2="0"><stop stop-color="rgba(243, 106, 62, 1)" offset="0%"/><stop stop-color="rgba(255, 179, 11, 1)" offset="100%"/></linearGradient></defs><path style="transform:translate(0, 0px); opacity:1" fill="url(#sw-gradient-0)" d="M0,147L40,187.8C80,229,160,310,240,343C320,376,400,359,480,294C560,229,640,114,720,106.2C800,98,880,196,960,220.5C1040,245,1120,196,1200,171.5C1280,147,1360,147,1440,122.5C1520,98,1600,49,1680,24.5C1760,0,1840,0,1920,0C2000,0,2080,0,2160,57.2C2240,114,2320,229,2400,245C2480,261,2560,180,2640,187.8C2720,196,2800,294,2880,302.2C2960,310,3040,229,3120,204.2C3200,180,3280,212,3360,220.5C3440,229,3520,212,3600,171.5C3680,131,3760,65,3840,89.8C3920,114,4000,229,4080,277.7C4160,327,4240,310,4320,253.2C4400,196,4480,98,4560,57.2C4640,16,4720,33,4800,65.3C4880,98,4960,147,5040,147C5120,147,5200,98,5280,65.3C5360,33,5440,16,5520,49C5600,82,5680,163,5720,204.2L5760,245L5760,490L5720,490C5680,490,5600,490,5520,490C5440,490,5360,490,5280,490C5200,490,5120,490,5040,490C4960,490,4880,490,4800,490C4720,490,4640,490,4560,490C4480,490,4400,490,4320,490C4240,490,4160,490,4080,490C4000,490,3920,490,3840,490C3760,490,3680,490,3600,490C3520,490,3440,490,3360,490C3280,490,3200,490,3120,490C3040,490,2960,490,2880,490C2800,490,2720,490,2640,490C2560,490,2480,490,2400,490C2320,490,2240,490,2160,490C2080,490,2000,490,1920,490C1840,490,1760,490,1680,490C1600,490,1520,490,1440,490C1360,490,1280,490,1200,490C1120,490,1040,490,960,490C880,490,800,490,720,490C640,490,560,490,480,490C400,490,320,490,240,490C160,490,80,490,40,490L0,490Z"/><defs><linearGradient id="sw-gradient-1" x1="0" x2="0" y1="1" y2="0"><stop stop-color="rgba(243, 106, 62, 1)" offset="0%"/><stop stop-color="rgba(255, 179, 11, 1)" offset="100%"/></linearGradient></defs><path style="transform:translate(0, 50px); opacity:0.9" fill="url(#sw-gradient-1)" d="M0,343L40,285.8C80,229,160,114,240,114.3C320,114,400,229,480,245C560,261,640,180,720,196C800,212,880,327,960,326.7C1040,327,1120,212,1200,163.3C1280,114,1360,131,1440,187.8C1520,245,1600,343,1680,351.2C1760,359,1840,278,1920,228.7C2000,180,2080,163,2160,147C2240,131,2320,114,2400,130.7C2480,147,2560,196,2640,220.5C2720,245,2800,245,2880,220.5C2960,196,3040,147,3120,155.2C3200,163,3280,229,3360,236.8C3440,245,3520,196,3600,155.2C3680,114,3760,82,3840,122.5C3920,163,4000,278,4080,269.5C4160,261,4240,131,4320,73.5C4400,16,4480,33,4560,73.5C4640,114,4720,180,4800,196C4880,212,4960,180,5040,204.2C5120,229,5200,310,5280,326.7C5360,343,5440,294,5520,285.8C5600,278,5680,310,5720,326.7L5760,343L5760,490L5720,490C5680,490,5600,490,5520,490C5440,490,5360,490,5280,490C5200,490,5120,490,5040,490C4960,490,4880,490,4800,490C4720,490,4640,490,4560,490C4480,490,4400,490,4320,490C4240,490,4160,490,4080,490C4000,490,3920,490,3840,490C3760,490,3680,490,3600,490C3520,490,3440,490,3360,490C3280,490,3200,490,3120,490C3040,490,2960,490,2880,490C2800,490,2720,490,2640,490C2560,490,2480,490,2400,490C2320,490,2240,490,2160,490C2080,490,2000,490,1920,490C1840,490,1760,490,1680,490C1600,490,1520,490,1440,490C1360,490,1280,490,1200,490C1120,490,1040,490,960,490C880,490,800,490,720,490C640,490,560,490,480,490C400,490,320,490,240,490C160,490,80,490,40,490L0,490Z"/><defs><linearGradient id="sw-gradient-2" x1="0" x2="0" y1="1" y2="0"><stop stop-color="rgba(243, 106, 62, 1)" offset="0%"/><stop stop-color="rgba(255, 179, 11, 1)" offset="100%"/></linearGradient></defs><path style="transform:translate(0, 100px); opacity:0.8" fill="url(#sw-gradient-2)" d="M0,98L40,114.3C80,131,160,163,240,212.3C320,261,400,327,480,351.2C560,376,640,359,720,294C800,229,880,114,960,114.3C1040,114,1120,229,1200,261.3C1280,294,1360,245,1440,204.2C1520,163,1600,131,1680,138.8C1760,147,1840,196,1920,204.2C2000,212,2080,180,2160,212.3C2240,245,2320,343,2400,359.3C2480,376,2560,310,2640,294C2720,278,2800,310,2880,269.5C2960,229,3040,114,3120,122.5C3200,131,3280,261,3360,294C3440,327,3520,261,3600,236.8C3680,212,3760,229,3840,204.2C3920,180,4000,114,4080,98C4160,82,4240,114,4320,155.2C4400,196,4480,245,4560,253.2C4640,261,4720,229,4800,236.8C4880,245,4960,294,5040,334.8C5120,376,5200,408,5280,408.3C5360,408,5440,376,5520,351.2C5600,327,5680,310,5720,302.2L5760,294L5760,490L5720,490C5680,490,5600,490,5520,490C5440,490,5360,490,5280,490C5200,490,5120,490,5040,490C4960,490,4880,490,4800,490C4720,490,4640,490,4560,490C4480,490,4400,490,4320,490C4240,490,4160,490,4080,490C4000,490,3920,490,3840,490C3760,490,3680,490,3600,490C3520,490,3440,490,3360,490C3280,490,3200,490,3120,490C3040,490,2960,490,2880,490C2800,490,2720,490,2640,490C2560,490,2480,490,2400,490C2320,490,2240,490,2160,490C2080,490,2000,490,1920,490C1840,490,1760,490,1680,490C1600,490,1520,490,1440,490C1360,490,1280,490,1200,490C1120,490,1040,490,960,490C880,490,800,490,720,490C640,490,560,490,480,490C400,490,320,490,240,490C160,490,80,490,40,490L0,490Z"/><defs><linearGradient id="sw-gradient-3" x1="0" x2="0" y1="1" y2="0"><stop stop-color="rgba(243, 106, 62, 1)" offset="0%"/><stop stop-color="rgba(255, 179, 11, 1)" offset="100%"/></linearGradient></defs><path style="transform:translate(0, 150px); opacity:0.7" fill="url(#sw-gradient-3)" d="M0,245L40,277.7C80,310,160,376,240,367.5C320,359,400,278,480,228.7C560,180,640,163,720,204.2C800,245,880,343,960,383.8C1040,425,1120,408,1200,375.7C1280,343,1360,294,1440,245C1520,196,1600,147,1680,171.5C1760,196,1840,294,1920,334.8C2000,376,2080,359,2160,334.8C2240,310,2320,278,2400,261.3C2480,245,2560,245,2640,236.8C2720,229,2800,212,2880,236.8C2960,261,3040,327,3120,334.8C3200,343,3280,294,3360,302.2C3440,310,3520,376,3600,334.8C3680,294,3760,147,3840,89.8C3920,33,4000,65,4080,122.5C4160,180,4240,261,4320,294C4400,327,4480,310,4560,310.3C4640,310,4720,327,4800,310.3C4880,294,4960,245,5040,196C5120,147,5200,98,5280,106.2C5360,114,5440,180,5520,179.7C5600,180,5680,114,5720,81.7L5760,49L5760,490L5720,490C5680,490,5600,490,5520,490C5440,490,5360,490,5280,490C5200,490,5120,490,5040,490C4960,490,4880,490,4800,490C4720,490,4640,490,4560,490C4480,490,4400,490,4320,490C4240,490,4160,490,4080,490C4000,490,3920,490,3840,490C3760,490,3680,490,3600,490C3520,490,3440,490,3360,490C3280,490,3200,490,3120,490C3040,490,2960,490,2880,490C2800,490,2720,490,2640,490C2560,490,2480,490,2400,490C2320,490,2240,490,2160,490C2080,490,2000,490,1920,490C1840,490,1760,490,1680,490C1600,490,1520,490,1440,490C1360,490,1280,490,1200,490C1120,490,1040,490,960,490C880,490,800,490,720,490C640,490,560,490,480,490C400,490,320,490,240,490C160,490,80,490,40,490L0,490Z"/></svg>